# xmcd
#
# Track frame offsets:
#	182
#	13382
#	25827
#	38287
#	50887
#	62490
#	76032
#	89517
#	101882
#	113660
#	125402
#	137342
#	150642
#	164682
#	177757
#	190445
#	203022
#	214775
#
# Disc length: 3019 seconds
#
# Revision: 0
# Processed by: cddbd v1.4PL0 Copyright (c) Steve Scherf et al.
# Submitted via: EasyCDDAExtractor 4.5.2.1
#
DISCID=ef0bc912
DTITLE=Memphis Minnie - Jazz and Blues Collection - CD 34
DYEAR=1900
DGENRE=Blues
TTITLE0=You Need A Friend
TTITLE1=Ma Rainey
TTITLE2=Nothing In Rambling
TTITLE3=Me And My Chauffeur Blues
TTITLE4=Down By The Riverside
TTITLE5=I Got To Make A Change
TTITLE6=This Is Your Last Chance
TTITLE7=Can't Afford To Lose My Man
TTITLE8=I'm Not A Bad Gal
TTITLE9=You Got To Get Out Of Here
TTITLE10=Looking The World Over
TTITLE11=It Was You Baby
TTITLE12=Remember Me Blues
TTITLE13=Lonesome Shack Blues
TTITLE14=Boy Friend Blues
TTITLE15=It's Hard To Please My Man
TTITLE16=In My Girlish Days
TTITLE17=Pig Meat On The Line
EXTD=
EXTT0=
EXTT1=
EXTT2=
EXTT3=
EXTT4=
EXTT5=
EXTT6=
EXTT7=
EXTT8=
EXTT9=
EXTT10=
EXTT11=
EXTT12=
EXTT13=
EXTT14=
EXTT15=
EXTT16=
EXTT17=
PLAYORDER=
